<svg width="100mm" height="100mm" version="1.1" viewBox="0 0 100 100" xmlns="http://www.w3.org/2000/svg" xmlns:xlink="http://www.w3.org/1999/xlink">
 <defs>
  <linearGradient id="linearGradient989" x1="-65.92" x2="-64.61" y1="181.8" y2="154.5" gradientTransform="translate(-53.14 -133.1)" gradientUnits="userSpaceOnUse" xlink:href="#linearGradient973"/>
  <linearGradient id="linearGradient973">
   <stop stop-color="#e69000" offset="0"/>
   <stop stop-color="#ee5f00" offset="1"/>
  </linearGradient>
  <linearGradient id="linearGradient975" x1="-5.613" x2="-9.5" y1="186.4" y2="153.5" gradientTransform="translate(-53.14 -133.1)" gradientUnits="userSpaceOnUse" xlink:href="#linearGradient973"/>
  <linearGradient id="linearGradient967" x1="-37.83" x2="-37.75" y1="188.1" y2="186.4" gradientTransform="translate(-53.14 -133.1)" gradientUnits="userSpaceOnUse">
   <stop stop-color="#d35f5f" offset="0"/>
   <stop stop-color="#d35f5f" stop-opacity="0" offset="1"/>
  </linearGradient>
  <linearGradient id="linearGradient936" x1="-19.41" x2="-27.42" y1="166.2" y2="151.8" gradientTransform="translate(-53.14 -133.1)" gradientUnits="userSpaceOnUse" xlink:href="#linearGradient973"/>
  <linearGradient id="linearGradient944" x1="-53.94" x2="-50.46" y1="171.9" y2="156.4" gradientTransform="translate(-53.14 -133.1)" gradientUnits="userSpaceOnUse" xlink:href="#linearGradient973"/>
 </defs>
 <g transform="translate(140.1 14.09)">
  <g transform="matrix(1.362 0 0 1.362 31.38 -13.51)">
   <path d="m-71.24 48.37c-1.403 6.618-4.502 8.672-8.444 11.47-3.942 2.796-7.534 4.652-9.958 4.649-2.389-4e-3 -6.271-1.111-10.13-4.154-3.861-3.043-7.463-4.909-9.613-13.61-5.671 7.851-12.57-21.74-0.3117-11.93-3.284-16.93 13.85-20.06 19.38-20.03 5.488 0.0339 23.3 4.328 20.8 19.96 7.671-6.693 6.684 12.65-1.727 13.65z" fill="#ff7f2a" fill-opacity=".5896" opacity=".7394" stroke-width="0"/>
   <g>
    <path d="m-106.4 16.16c-3.378-5.278-9.925-5.789-14.61 2.721-4.101 7.45-6.45 29.25 5.659 44.4-4.898-13.68 1.14-39.9 2.955-43.36 0.6387-1.218 4.475 0.5489 4.94 0.5489s1.056-4.307 1.056-4.307z" fill="url(#linearGradient989)"/>
    <path d="m-109.7 8.986 5.955 2.583-3.566 2.074-1.433 1.732-2.388 6.09-4.746-3.458 4.128-2.587 1.095-1.538z" fill="#ea0000"/>
    <path d="m-70.81 16.47c4.053-2.744 10.18-5.114 14.86 3.396 4.101 7.45 1.383 32.46-7.432 44.31 4.898-13.68 0.6333-39.81-1.182-43.28-0.6387-1.218-4.475 0.5489-4.94 0.5489-0.4644 0-1.309-4.982-1.309-4.982z" fill="url(#linearGradient975)"/>
    <path d="m-74.5 13.54 4.45-5.461 1.649 7.044 0.9361 1.706 4.834 3.615-4.871 3.147-2.49-5.377-0.8156-1.742z" fill="#ea0000"/>
    <path d="m-88.85 11.18c-2.145-3.709-14.37-5.347-22.56 6.329-8.192 11.68-1.976 21.16 1.177 24.82 0.0286-5.906-0.2615-2.278 0.5366-7.544 14.03 1.241 26.43 8e-3 37.58-0.1291 0.8773 1.938 2.555 3.226 2.214 6.598 4.384-4.824 5.294-13.2 1.642-21.78-3.653-8.584-14.66-11.39-20.59-8.296z" fill="#f06000"/>
   </g>
   <g transform="rotate(9.676 710.6 -208.1)">
    <path d="m-43.07 174.3c-2.962-10.1-10.77-2.389-10.64 0 1.704 4.339 9.528 1.692 10.64 0z" fill="#f4e3d7" stroke="#000" stroke-width=".2646px"/>
    <path d="m-47.77 169.2c-1.623 2e-3 -3.249 1.048-4.389 2.244a6.032 3.634 77.15 0 0 0.1168 0.5964 6.032 3.634 77.15 0 0 2.766 4.583c1.298-0.0358 2.652-0.3635 3.775-0.8051a6.032 3.634 77.15 0 0 0.5746-5.259c-0.8715-0.9729-1.857-1.36-2.844-1.359z" fill="#351c04" stroke-width="0"/>
    <g fill="none" stroke="#000" stroke-width=".2646px">
     <path d="m-43.07 174.3c-1.419-5.825-6.207-7.98-10.87-2.401"/>
     <path d="m-50.25 169.9c-0.6224-0.6042-1.013-1.239-1.405-1.952"/>
     <path d="m-52.16 171.5c-1.485-0.8667-1.934-1.491-1.934-1.491"/>
     <path d="m-53.39 173.1c-0.9758-0.2537-1.854-0.7221-1.854-0.7221"/>
    </g>
   </g>
   <g transform="rotate(-7.274 -1100 523.5)" stroke="#000">
    <path d="m-32.42 174.8c2.013-7.017 7.671-6.42 11.21-2.713" fill="none" stroke-width=".3"/>
    <path d="m-32.42 174.8c1.798-7.681 8.917-5.77 10.27-0.8243-2.048 4.992-8.58 2.286-10.27 0.8243z" fill="#e3dedb" stroke-width=".2646px"/>
    <g fill="none" stroke-width=".465">
     <path d="m-26.78 169.7c0.1537-1.045 0.1564-1.538 0.2247-2.461"/>
     <path d="m-24.27 170.7c0.5532-0.3841 0.9276-1.131 1.101-2.034"/>
     <path d="m-22.96 172c0.7823-0.2016 1.593-0.76 2.124-1.382"/>
    </g>
    <path d="m-27.53 169.6c-1.14 0.0339-2.27 0.522-3.194 1.57a3.488 5.287 8.234 0 0-0.0517 0.3137 3.488 5.287 8.234 0 0 1.019 4.712c1.059 0.3858 2.27 0.6528 3.433 0.6067a3.488 5.287 8.234 0 0 2.454-4.332 3.488 5.287 8.234 0 0 0.0791-1.316c-1.04-1.012-2.395-1.595-3.739-1.555z" fill="#351c04" stroke-linecap="square" stroke-linejoin="round" stroke-width=".1695"/>
   </g>
   <g>
    <ellipse cx="-90.34" cy="46.37" rx="1.246" ry=".8444" fill="#d38d5f"/>
    <ellipse cx="-77.38" cy="46.94" rx="3.061" ry="1.794" fill="#ff8080"/>
    <ellipse cx="-104" cy="46.94" rx="3.631" ry="1.837" fill="#ff8080"/>
    <path d="m-94.96 54.39c3.441 2.955 7.319 1.125 8.993-0.5489 3.082-3.082-0.6333-0.8444-4.644-0.7178-4.011 0.1267-7.79-1.689-4.349 1.267z" fill="url(#linearGradient967)" stroke="#982c2c" stroke-width=".965"/>
   </g>
   <path d="m-73.03 24.69c2.15-1.612 3.26-4.489 3.414-6.511 1.075 1.153 1.477 3.174 1.477 3.174s-1.294 6.471-3.577 8.054c-0.4777-2.747-1.314-4.717-1.314-4.717z" fill="#a40" fill-opacity=".75"/>
   <g fill="#d45500">
    <path d="m-91.68 15.58 0.6338 0.1938c-0.8692 2.531-3.17 12.66-3.556 18.34-0.9344 0.3668-0.3509-0.0717-1.472 0.1146 0.3141-4.585 3.196-16.28 4.394-18.65z"/>
    <path d="m-111.6 18.92c0.5249 2.544 1.798 7.728 2.913 9.415 0.7351-3.21 2.239-5.612 2.955-6.966-1.479-0.4259-4.257-1.954-4.94-4.095z"/>
    <path d="m-82.58 28.69 2.388-0.8956 2.388 2.09z"/>
   </g>
   <path d="m-80.55 18.7c2.734 4.687 9.405 18.6 3.711 37.79 5.731-7.074 10.03-30.13-2.539-41.89" fill="url(#linearGradient936)"/>
   <path d="m-99.18 19.36c-2.734 4.687-10.6 16.27-4.91 35.47-5.731-7.074-10.03-26.91 2.539-38.67" fill="url(#linearGradient944)"/>
   <path d="m-99.05 29.39-2.388-0.8956-2.388 2.09z" fill="#d45500"/>
   <path d="m-85.81 15.92c2.538 3.898 5.08 13.12 5.254 16.41 1.254 0.0604-0.3288-0.3657 1.201 0.0252 0.1791-3.626-2.216-13.17-5.918-16.86-0.5374 0.3626 0.8061-0.3022 0 0z" fill="#a40" fill-opacity=".7201"/>
  </g>
 </g>
</svg>
