<svg width="100mm" height="100mm" version="1.1" viewBox="0 0 100 100" xmlns="http://www.w3.org/2000/svg">
 <path d="m18.07 50.59c-13.85-5.815-4.424 26.9 3 19.7 1.13 4.746 0.4654 5.801 4.357 11.14 3.892 5.334 14.18 14.07 24.53 14.85 10.35 0.7736 20.41-7.041 24.69-12.75 4.286-5.708 3.307-6.59 4.357-11.94 3.148 12.24 18.05-24.32 4.196-21.46-3.525-10.38-5.658-28.18-32.92-29.05-30.51 2.843-28.68 19.52-32.21 29.52z" fill="#e9c6af"/>
 <path d="m54 13.24c-0.4833-3.847-4.591-9.161-8.952-8.15 1.23 1.695 3.213 3.782 3.694 7.194-4.381-2.515-10.44-4.181-13.88-2.618 1.431 1.662 2.52 2.529 3.542 4.884-4.22-2.196-9.415-0.9642-12.96 1.505-3.891 1.96-7.704 3.673-9.564 9.058 1.507-0.7135 2.425-1.595 3.894-1.193-1.334 1.476-6.122 4.804-5.414 7.783 1.127-1.008 1.626-1.616 2.839-1.663-1.389 1.701-2.49 5.567-2.977 7.947-0.4871 2.38-0.06791 4.496 0.4508 7.034 0.5187 2.538 1.313 7.289 3.115 7.67-0.2229-0.8462 0.4669-1.09 0.7739-2.047 1.534 0.3548 0.1583 5.813 1.822 8.287 0.4368-6.113-0.9998-16.71 2.565-19.42-0.6036 1.538-0.7256 3.595-0.1786 4.913 5.171-9.513 9.083-10.43 13.92-16.96-1.075 2.079-1.587 3.146-1.294 5.4 3.26-3.316 5.646-6.64 10.6-8.506-1.672 2.23-2.548 4.991-2.869 6.652 3.174-2.308 5.117-4.979 7.65-5.82 0.1668 4.912-3.983 11.11-4.571 12.66 8.623-2.051 9.731-7.56 11.04-11.3 1.78 3.067 1.765 4.491 2.008 6.312 2.009-1.419 2.257-6.62 1.642-8.902 4.282-0.6071 6.561 11.28 10.11 13.55-0.3065-2.011-1.426-4.373-1.39-5.027 0.6542 3.551 8.433 16.88 8.572 18.42 1.281 5.047 0.7441 6.744 0.9164 13.22 2.854-7.501 4.367-11.4 5.236-15.58 0.8692-4.183 0.8448-6.641 0.7855-9.164-0.05936-2.523-0.03901-5.406-0.8425-6.262 0.9938-1.027 1.362-0.1975 2.361 0.2333-0.769-3.021-7.064-10.95-9.108-11.41 0.8084-0.8574 2.188-0.4012 3.957 0.213-3.594-3.494-10.23-4.875-13.67-3.929 2.147-1.022 4.805-1.918 8.751-1.485-4.299-3.647-9.048-2.8-12-1.316 1.298-1.711 3.217-1.843 4.81-2.009-2.173-1.393-5.02-1.132-8.258 0.6276 1.299-4.516 3.049-7.066 5.453-10.36-6.041 0.9275-12.16 6.243-12.59 9.557z" fill="#483745"/>
 <path d="m64.93 46.73c-4.128 0.01196-6.763 0.5739-8.544 1.716-0.8248 0.5287-1.414 1.188-1.835 1.918l-1.865-0.3948c-1.333-0.2826-2.396-0.281-3.435-0.08578-0.893 0.1678-1.769 0.4511-2.913 0.7819-0.4181-0.7025-0.9957-1.337-1.794-1.848-2.037-1.306-5.189-1.852-10.41-1.687-5.342 0.169-8.806 1.951-10.57 4.498-1.763 2.547-1.725 5.707-0.5117 8.279 1.243 2.634 3.821 4.427 6.747 5.316 2.926 0.8912 6.25 0.9052 9.184-0.1835 5.694-2.112 8.623-6.501 8.34-10.8-0.03466-0.526-0.1027-1.057-0.2191-1.577 1.048-0.3038 1.885-0.5607 2.534-0.6827 0.8118-0.1525 1.474-0.1632 2.602 0.07597l1.554 0.3297c-0.1039 0.4903-0.1659 0.9888-0.1984 1.483-0.2834 4.3 2.646 8.689 8.34 10.8 2.934 1.089 6.258 1.075 9.184 0.1835 2.926-0.8912 5.506-2.68 6.747-5.316 1.214-2.573 1.251-5.734-0.5117-8.279-1.763-2.547-5.226-4.332-10.57-4.501-0.6522-0.02064-1.272-0.03014-1.862-0.02842zm0.01291 2.124c0.5602-0.0036 1.154 0.0039 1.783 0.02376 4.908 0.1553 7.602 1.724 8.891 3.588 1.29 1.864 1.278 4.173 0.3379 6.165-0.911 1.931-2.95 3.432-5.448 4.191s-5.4 0.7589-7.83-0.1426c-5.035-1.868-7.173-5.411-6.959-8.674 0.1158-1.757 0.4239-2.884 1.813-3.776 1.216-0.7792 3.493-1.354 7.414-1.379zm-28.95 0.371c3.921 0.02464 6.197 0.5985 7.414 1.378 1.389 0.8906 1.697 2.02 1.813 3.778 0.2148 3.26-1.923 6.806-6.959 8.674-2.43 0.9015-5.334 0.9028-7.83 0.1426-2.495-0.7602-4.538-2.261-5.448-4.191-0.9399-1.992-0.9523-4.305 0.3374-6.168 1.29-1.863 3.982-3.432 8.891-3.585 0.629-0.0199 1.223-0.02728 1.783-0.02376z" color="#000000" color-rendering="auto" dominant-baseline="auto" fill="#61687e" image-rendering="auto" shape-rendering="auto" solid-color="#000000" stop-color="#000000" stroke-width=".2646" style="font-feature-settings:normal;font-variant-alternates:normal;font-variant-caps:normal;font-variant-east-asian:normal;font-variant-ligatures:normal;font-variant-numeric:normal;font-variant-position:normal;font-variation-settings:normal;inline-size:0;isolation:auto;mix-blend-mode:normal;shape-margin:0;shape-padding:0;text-decoration-color:#000000;text-decoration-line:none;text-decoration-style:solid;text-indent:0;text-orientation:mixed;text-transform:none;white-space:normal"/>
 <path d="m51.81 60.98c1.043 0.3526 1.252 2.154 0.9736 3.06-0.2787 0.906-1.012 1.674-1.947 1.53-0.9354-0.1437-2.005-1.561-1.808-2.643 0.1969-1.082 1.739-2.3 2.782-1.947z" fill="#bb7a4f"/>
 <path d="m64.76 42.56c-3.643-1.257-4.069-2.22-1.981-3.126 2.088-0.9063 4.16-1.076 5.365 1.244s0.2585 3.139-3.384 1.882z" fill="#483745"/>
 <path d="m39.22 38.28c-2.073-1.36-2.248-2.126-4.986 0.9995-2.739 3.126-1.352 4.11 2.379 2.31 3.732-1.801 4.68-1.949 2.607-3.309z" fill="#483745"/>
 <g shape-rendering="auto">
  <path d="m63.1 52.56c-0.8158-0.06579-1.553-0.02758-2.258 0.05859l0.1289 1.053c1.314-0.1606 2.626-0.151 4.541 0.4629l1.982 0.6367 0.3242-1.01-1.982-0.6367c-1.025-0.3287-1.921-0.4987-2.736-0.5645z" color="#000000" color-rendering="auto" dominant-baseline="auto" fill="#714e22" fill-opacity=".6045" image-rendering="auto" solid-color="#000000" stop-color="#000000" style="font-feature-settings:normal;font-variant-alternates:normal;font-variant-caps:normal;font-variant-east-asian:normal;font-variant-ligatures:normal;font-variant-numeric:normal;font-variant-position:normal;font-variation-settings:normal;inline-size:0;isolation:auto;mix-blend-mode:normal;shape-margin:0;shape-padding:0;text-decoration-color:#000000;text-decoration-line:none;text-decoration-style:solid;text-indent:0;text-orientation:mixed;text-transform:none;white-space:normal"/>
  <path d="m65.68 53.39c-1.768-0.06489-3.891 0.03282-6.096 0.4219l0.3691 2.088c2.033-0.3587 4.022-0.4484 5.65-0.3887s2.943 0.2994 3.398 0.4648l1.371 0.5 0.7246-1.994-1.371-0.498c-0.9159-0.333-2.279-0.5289-4.047-0.5938z" color="#000000" color-rendering="auto" dominant-baseline="auto" image-rendering="auto" solid-color="#000000" stop-color="#000000" style="font-feature-settings:normal;font-variant-alternates:normal;font-variant-caps:normal;font-variant-east-asian:normal;font-variant-ligatures:normal;font-variant-numeric:normal;font-variant-position:normal;font-variation-settings:normal;inline-size:0;isolation:auto;mix-blend-mode:normal;shape-margin:0;shape-padding:0;text-decoration-color:#000000;text-decoration-line:none;text-decoration-style:solid;text-indent:0;text-orientation:mixed;text-transform:none;white-space:normal"/>
  <path d="m37.09 53.27c0.8158-0.06579 1.553-0.02758 2.258 0.05859l-0.1289 1.053c-1.314-0.1606-2.626-0.151-4.541 0.4629l-1.982 0.6367-0.3242-1.01 1.982-0.6367c1.025-0.3287 1.921-0.4987 2.736-0.5645z" color="#000000" color-rendering="auto" dominant-baseline="auto" fill="#714e22" fill-opacity=".6045" image-rendering="auto" solid-color="#000000" stop-color="#000000" style="font-feature-settings:normal;font-variant-alternates:normal;font-variant-caps:normal;font-variant-east-asian:normal;font-variant-ligatures:normal;font-variant-numeric:normal;font-variant-position:normal;font-variation-settings:normal;inline-size:0;isolation:auto;mix-blend-mode:normal;shape-margin:0;shape-padding:0;text-decoration-color:#000000;text-decoration-line:none;text-decoration-style:solid;text-indent:0;text-orientation:mixed;text-transform:none;white-space:normal"/>
  <path d="m34.51 54.1c1.768-0.06489 3.891 0.03282 6.096 0.4219l-0.3691 2.088c-2.033-0.3587-4.022-0.4484-5.65-0.3887s-2.943 0.2994-3.398 0.4648l-1.371 0.5-0.7246-1.994 1.371-0.498c0.9159-0.333 2.279-0.5289 4.047-0.5938z" color="#000000" color-rendering="auto" dominant-baseline="auto" image-rendering="auto" solid-color="#000000" stop-color="#000000" style="font-feature-settings:normal;font-variant-alternates:normal;font-variant-caps:normal;font-variant-east-asian:normal;font-variant-ligatures:normal;font-variant-numeric:normal;font-variant-position:normal;font-variation-settings:normal;inline-size:0;isolation:auto;mix-blend-mode:normal;shape-margin:0;shape-padding:0;text-decoration-color:#000000;text-decoration-line:none;text-decoration-style:solid;text-indent:0;text-orientation:mixed;text-transform:none;white-space:normal"/>
  <path d="m39.21 77.91-0.5117 0.9258c2.703 1.489 4.316 1.635 5.748 1.336 1.432-0.2994 2.594-0.9314 4.842-1.004 2.224-0.07171 3.684 0.3769 5.082 0.7852 1.398 0.4082 2.768 0.781 4.568 0.418l2.645-0.5332-0.209-1.037-2.645 0.5332c-1.568 0.316-2.675 0.007025-4.064-0.3984-1.389-0.4055-3.026-0.903-5.41-0.8262-2.435 0.07851-3.791 0.7693-5.025 1.027-1.234 0.258-2.437 0.1965-5.02-1.227z" color="#000000" color-rendering="auto" dominant-baseline="auto" fill="#bb7a4f" image-rendering="auto" solid-color="#000000" stop-color="#000000" style="font-feature-settings:normal;font-variant-alternates:normal;font-variant-caps:normal;font-variant-east-asian:normal;font-variant-ligatures:normal;font-variant-numeric:normal;font-variant-position:normal;font-variation-settings:normal;inline-size:0;isolation:auto;mix-blend-mode:normal;shape-margin:0;shape-padding:0;text-decoration-color:#000000;text-decoration-line:none;text-decoration-style:solid;text-indent:0;text-orientation:mixed;text-transform:none;white-space:normal"/>
 </g>
</svg>
