<svg width="100mm" height="100mm" version="1.1" viewBox="0 0 100 100" xmlns="http://www.w3.org/2000/svg">
 <defs>
  <linearGradient id="linearGradient1213" x1="-760.7" x2="-727.1" y1="48.36" y2="-4.527" gradientTransform="matrix(.2646 0 0 .2646 224.1 30.45)" gradientUnits="userSpaceOnUse">
   <stop stop-color="#897669" offset="0"/>
   <stop stop-color="#a39388" stop-opacity="0" offset="1"/>
  </linearGradient>
  <linearGradient id="linearGradient1155" x1="-628.2" x2="-630.2" y1="-27.27" y2="8.08" gradientTransform="matrix(.2646 0 0 .2646 224.1 30.45)" gradientUnits="userSpaceOnUse">
   <stop stop-color="#69615b" offset="0"/>
   <stop stop-color="#66584f" offset="1"/>
  </linearGradient>
  <linearGradient id="linearGradient1175" x1="-661.2" x2="-664.1" y1="-20.32" y2="8.585" gradientTransform="matrix(.2646 0 0 .2646 224.1 30.45)" gradientUnits="userSpaceOnUse">
   <stop stop-color="#62544b" stop-opacity="0" offset="0"/>
   <stop stop-color="#7c6b60" offset="1"/>
  </linearGradient>
  <linearGradient id="linearGradient1147" x1="-580.6" x2="-567.5" y1="26.65" y2="66.7" gradientTransform="matrix(.2646 0 0 .2646 224.1 30.45)" gradientUnits="userSpaceOnUse">
   <stop stop-color="#ac9d93" stop-opacity="0" offset="0"/>
   <stop stop-color="#66584f" offset="1"/>
  </linearGradient>
  <linearGradient id="linearGradient1197" x1="-705.5" x2="-681.8" y1="11.47" y2="-27.37" gradientTransform="matrix(.2646 0 0 .2646 224.1 30.45)" gradientUnits="userSpaceOnUse">
   <stop stop-color="#82756d" offset="0"/>
   <stop stop-color="#69615b" offset="1"/>
  </linearGradient>
 </defs>
 <path d="m48.96 97.15c-5.329-0.0222-12.96-5.348-19.55-10.5-3.487-2.726-6.184-7.309-8.143-16.35-4.245 4.37-15.06-13.16-4.838-15.98 5.559-27.81 25.13-29.92 33.27-29.92s15.52 4.071 20.86 10.65c2.669 3.291 9.583 14.16 8.921 22.39 10.14 0.2509 3.041 20.04-3.285 16.62-0.5558 7.107-4.28 9.918-9.027 14.9s-13.81 8.204-18.21 8.186z" fill="#e4ba9e"/>
 <path d="m45.54 2.842c-1.626 0.02508-3.27 0.5067-4.838 1.615 10.85-3.121 11.54 7.519 11.56 8.047-0.0021-6.35e-4 -0.0045-0.0014-0.0067-0.0021-0.6217-3.948-13.73-11.64-20.52 0.3711 0.8437-0.3242 1.65-0.5933 2.428-0.8237-17.47 5.766-17.45 31.07-28.9 26.11 2.229 1.585 4.165 4.302 8.191 2.352-3.753 2.673 0.4107 10.2-7.432 8.656 1.813 2.328 4.552 2.504 7.085 1.645-0.5898 2.37-2.153 6.044-4.428 6.706 3.971 0.874 4.045-1.265 6.991-2.48 0.2999 3.073-0.6477 6.746 4.967 12.58-0.5793-5.443-2.642-12.64 2.773-20.44 5.415-7.798 20.83-15.54 28.41-14.33 7.582 1.206 8.203 3.7 9.743 7.845s-0.2983 10.49-2.531 13.79c6.449-6.067 7.226-9.265 8.001-15.49 1.569 10.87 12.24 14.16 7.769 33.4 4.455-6.764 5.615-10.19 5.642-14.67 3.415 0.9777 3.963 4.501 3.959 6.472 2.59-0.5168 1.878-5.91 0.4413-8.701 2.639 1.444 3.911 5.027 3.911 5.027 0.1094-4.864-2.125-7.963-3.531-9.708 2.988 2.173 6.107 3.512 9.489 1.136-5.988-0.2586-9.698-5.713-11.89-10.5 1.986 3.842 2.448 4.15 4.758 5.491-2.72-3.212-0.2267-14.91-6.909-15.87 3.8-0.0525 6.075 2.979 9.361-0.4439-13.02-0.5641-9.046-21.69-26.12-15.85 1.776-5.007 6.008-4.777 8.689-4.162-4.975-5.381-13.11-1.35-14.58 3.136 0.4351-3.541-5.873-11.01-12.49-10.91z" fill="#69615b"/>
 <path d="m30.86 23.85s-23.44 23.26-5.823 41.29c-7.26-15 13.23-34.3 13.23-34.3" fill="url(#linearGradient1213)"/>
 <path d="m62.05 24.65c2.811 24.64-9.364 29.72-21.14 25.39 20.18-1.664 8.258-24.99 8.258-24.99" fill="url(#linearGradient1155)"/>
 <path d="m57.65 21.45c-1.27 19.8-27.07 27.51-27.07 27.51s11.55-11.01 12.41-29.17" fill="url(#linearGradient1175)"/>
 <path d="m66.15 33.25c-0.9697 4.667 1.736 19.29 18.11 24.45-6.176-6.169-10.91-10.48-9.959-23.71" fill="url(#linearGradient1147)"/>
 <g stroke="#000">
  <path d="m56.15 61.65c3.995-9.05 11.8-4.881 14.93 0.7411-5.225 5.015-12.51 3.332-14.93-0.7411z" fill="#f9f9f9" stroke-width=".5292"/>
  <path d="m39.43 60.45c-4.422-8.712-11.99-5.995-15.14-0.2118 3.176 4.658 11.92 4.955 15.14 0.2118z" fill="#f9f9f9" stroke-width=".5292"/>
  <path d="m66.15 57.35c-0.0316-0.0171-0.0593-0.0453-0.0909-0.062-0.3401-0.1798-0.6859-0.3365-1.036-0.4677s-0.7032-0.237-1.058-0.3137c-0.3551-0.0767-0.7117-0.1246-1.068-0.1411-0.3564-0.0165-0.7125-1e-3 -1.066 0.0481-0.3536 0.0494-0.705 0.1332-1.052 0.2542-0.3466 0.1211-0.6887 0.279-1.024 0.4775-0.2024 0.1197-0.3966 0.284-0.5938 0.4336a4.166 6.542 0 0 0-0.6242 3.445 4.166 6.542 0 0 0 0.5664 3.293c0.4706 0.2542 0.9547 0.495 1.482 0.6682 0.6368 0.2094 1.309 0.3562 2.003 0.432 0.6942 0.0758 1.41 0.0803 2.135 6e-3 0.3997-0.0412 0.803-0.169 1.206-0.2599a4.166 6.542 0 0 0 0.9405-4.139 4.166 6.542 0 0 0-0.7193-3.674z" fill="#351b09" opacity=".9485" stroke-linecap="round" stroke-linejoin="round" stroke-width=".5324"/>
  <path d="m36.23 56.35c-0.1951-0.1512-0.3878-0.3178-0.5865-0.4444-0.3452-0.22-0.6953-0.4033-1.049-0.5524s-0.7092-0.264-1.067-0.3462c-0.3574-0.0823-0.7163-0.1319-1.074-0.1514-0.358-0.0195-0.7153-9e-3 -1.07 0.0305-0.3549 0.0391-0.7072 0.1063-1.055 0.2-0.348 0.0937-0.6919 0.2139-1.029 0.3581-0.3375 0.1442-0.6684 0.3127-0.9917 0.5033-0.01257 7e-3 -0.02413 0.0173-0.03669 0.0248a4.526 6.531 0 0 0-0.6165 3.291 4.526 6.531 0 0 0 0.9312 3.967c0.3489 0.1169 0.6812 0.2695 1.044 0.3504 0.724 0.1615 1.47 0.2508 2.216 0.2666 0.7463 0.0159 1.493-0.0413 2.218-0.1736 0.6078-0.1109 1.186-0.3053 1.751-0.5219a4.526 6.531 0 0 0 0.8904-3.889 4.526 6.531 0 0 0-0.4759-2.913z" fill="#351b09" opacity=".9485" stroke-linecap="round" stroke-linejoin="round" stroke-width=".5544"/>
 </g>
 <g transform="translate(-45.25 -83.05)" fill="none">
  <path d="m80.13 160.3s-2.746-0.5885 0.9529 1.059c3.91 0.6944 18.83 0.4621 22.87 0 3.61-1.838 0.847-1.165 0.847-1.165" stroke="#572d04" stroke-width="1.191"/>
  <path d="m102.7 142.3s1.939-3.066 5.723-3.663c3.783-0.5976 7.656 1.922 7.656 1.922" stroke="#000" stroke-width=".4519"/>
  <path d="m84.68 143.5s-3.813-6.805-7.623-6.988c-3.81-0.1826-7.729 4.129-7.729 4.129" stroke="#000" stroke-width=".5292"/>
 </g>
 <path d="m49.17 67.15-2.541 3.706 3.494-0.4235z" fill="#774421" fill-opacity=".7425"/>
 <path d="m60.05 46.25 6.247-2.435 4.87 4.553-5.294-1.694z" fill="#502d16"/>
 <path d="m39.89 16.85s-19 21.99-11.65 43.62c0.5742-15.43 20.96-35.36 20.96-35.36" fill="url(#linearGradient1197)"/>
 <path d="m30.54 45.05 1.588-2.435 8.787 1.694z" fill="#502d16" opacity=".7394"/>
</svg>
