<svg width="101mm" height="101mm" version="1.1" viewBox="0 0 101 101" xmlns="http://www.w3.org/2000/svg" xmlns:xlink="http://www.w3.org/1999/xlink">
 <defs>
  <linearGradient id="linearGradient3524">
   <stop stop-color="#c8b7b7" stop-opacity="0" offset="0"/>
   <stop stop-color="#382b2b" offset="1"/>
  </linearGradient>
  <linearGradient id="linearGradient3532">
   <stop stop-color="#62544b" stop-opacity="0" offset="0"/>
   <stop stop-color="#473d37" offset="1"/>
  </linearGradient>
  <linearGradient id="linearGradient3628">
   <stop stop-color="#c9733a" offset="0"/>
   <stop stop-color="#deaa87" stop-opacity="0" offset="1"/>
  </linearGradient>
  <linearGradient id="linearGradient3572-6" x1="-715" x2="-745" y1="-415" y2="-340" gradientTransform="matrix(.2646 0 0 .2646 215.5 139.1)" gradientUnits="userSpaceOnUse" xlink:href="#linearGradient3524"/>
  <linearGradient id="linearGradient3542-3" x1="-645" x2="-655" y1="-435" y2="-405" gradientTransform="matrix(.2646 0 0 .2646 215.5 139.1)" gradientUnits="userSpaceOnUse" xlink:href="#linearGradient3532"/>
  <linearGradient id="linearGradient3534-7" x1="-590" x2="-610" y1="-425" y2="-390" gradientTransform="matrix(.2646 0 0 .2646 215.5 139.1)" gradientUnits="userSpaceOnUse" xlink:href="#linearGradient3532"/>
  <linearGradient id="linearGradient3526-5" x1="-575" x2="-510" y1="-415" y2="-260" gradientTransform="matrix(.2646 0 0 .2646 215.5 139.1)" gradientUnits="userSpaceOnUse" xlink:href="#linearGradient3524"/>
  <linearGradient id="linearGradient3558-1" x1="-740" x2="-765" y1="-375" y2="-295" gradientTransform="matrix(.2646 0 0 .2646 215.5 139.1)" gradientUnits="userSpaceOnUse">
   <stop stop-color="#62544b" stop-opacity="0" offset="0"/>
   <stop stop-color="#473d37" stop-opacity=".903" offset="1"/>
  </linearGradient>
  <linearGradient id="linearGradient3550-1" x1="-685" x2="-700" y1="-445" y2="-400" gradientTransform="matrix(.2646 0 0 .2646 215.5 139.1)" gradientUnits="userSpaceOnUse" xlink:href="#linearGradient3532"/>
  <linearGradient id="linearGradient3630-4" x1="-585" x2="-575" y1="-315" y2="-307" gradientTransform="matrix(.2764 0 0 .2764 222.5 143)" gradientUnits="userSpaceOnUse" xlink:href="#linearGradient3628"/>
  <linearGradient id="linearGradient3655-4" x1="-675" x2="-684" y1="-328" y2="-315" gradientTransform="matrix(.2764 0 0 .2353 223 131.3)" gradientUnits="userSpaceOnUse" xlink:href="#linearGradient3628"/>
  <linearGradient id="linearGradient3655-6-8" x1="-675" x2="-684" y1="-328" y2="-315" gradientTransform="matrix(1.046 0 0 .8937 220.8 6.416)" gradientUnits="userSpaceOnUse" xlink:href="#linearGradient3628"/>
 </defs>
 <g>
  <path d="m81.89 61.07c0 17.9-16.88 31.16-33.69 31.16-16.8 0-32.18-14.13-32.18-32.04 0-17.9 15.38-32.41 32.18-32.41 16.8 0 33.69 15.39 33.69 33.29z" fill="#edc1a3" stroke-linecap="round" stroke-linejoin="round" stroke-opacity=".9963" stroke-width=".3077"/>
  <path d="m37.05 11.5c-15.84 0.2642-23.26 33.55-34.45 25.13 1.23 8.565 10.49 3.273 10.49 3.273s-11.66 14.87-7.937 22.49c4.204 8.411 17.92 13.36 22.49 9.26-9.26 3.969-7.938-11.91-7.938-11.91s1.219-11.31 5.047-19.34c15.21-9.655 20.09-8.445 20.09-8.445s11.9 11.14 17.2 14.55c5.3 3.413 11.91 6.615 11.91 6.615s2.646 7.428 2.646 14.55c0 3.969-1.323 10.58-9.26 9.26 3.969 2.646 10.58 2.646 18.52-5.292s6.615-13.23 2.646-21.17c2.646 0 5.292 2.646 9.891-6.348-17.83 12.96-17.83-42.6-49.58-29.37-2.64 0.8618-1.866 0.7001-2.724 0.09767 6e-3 -0.0083 0.0785-0.09767 0.0785-0.09767-3.338-2.356-6.356-3.314-9.118-3.268z" fill="#605349"/>
  <path d="m28.97 25.36s-10.1 9.39-12.33 19.91c-2.225 10.52 0.4207 13.16 7.035 17.13-9.26-19.84 11.91-33.07 11.91-33.07z" fill="url(#linearGradient3572-6)"/>
 </g>
 <path d="m48.82 18.74c-7.119-15.96 12.35-24.39 21.17-7.938 0 0-8.609-9.442-16.55-5.474-7.938 3.969-4.62 13.41-4.62 13.41" fill="#5a4e45" fill-opacity=".8246"/>
 <g>
  <path d="m38.23 20.06c-15.87 19.84-9.26 33.07 14.55 29.1-17.2-5.292-1.323-26.46-1.323-26.46z" fill="url(#linearGradient3542-3)"/>
  <path d="m48.82 20.06c-7.938 21.17 0 33.07 23.81 31.75-10.58-1.323-15.88-23.81-13.23-26.46-4.531-4.986-10.58-5.292-10.58-5.292z" fill="url(#linearGradient3534-7)"/>
  <path d="m63.37 22.71s14.97 13.29 17.2 23.81c2.225 10.52-1.323 21.17-10.58 23.81 15.88-13.23-14.55-43.66-14.55-43.66z" fill="url(#linearGradient3526-5)"/>
  <path d="m21.03 34.62s-9.681 10.65-11.91 21.17c-2.225 10.52 2.646 15.88 9.26 17.2-9.26-7.938 2.646-29.1 2.646-29.1z" fill="url(#linearGradient3558-1)"/>
  <path d="m54.12 73.93a0.8202 0.8202 0 0 0-0.3028 0.0522 0.8202 0.8202 0 0 0-0.479 1.057c0.2537 0.6744 0.1652 1.072-0.1183 1.505-0.2835 0.433-0.8463 0.8672-1.553 1.213-1.414 0.6923-3.385 1.019-4.172 1.019s-2.384-0.3218-3.473-0.9782c-0.5447-0.3282-0.9581-0.7251-1.175-1.153-0.2165-0.4283-0.2861-0.8967-0.0605-1.593a0.8202 0.8202 0 0 0-0.5271-1.033 0.8202 0.8202 0 0 0-1.033 0.5271c-0.3375 1.041-0.2462 2.042 0.1566 2.839 0.4028 0.7969 1.067 1.382 1.792 1.818 1.45 0.8736 3.161 1.213 4.32 1.213s3.157-0.3354 4.894-1.185c0.8682-0.425 1.676-0.982 2.204-1.788s0.6907-1.894 0.2816-2.982a0.8202 0.8202 0 0 0-0.7534-0.5312z" color="#000000" color-rendering="auto" dominant-baseline="auto" fill="#cd3434" image-rendering="auto" shape-rendering="auto" solid-color="#000000" stop-color="#000000" style="font-feature-settings:normal;font-variant-alternates:normal;font-variant-caps:normal;font-variant-east-asian:normal;font-variant-ligatures:normal;font-variant-numeric:normal;font-variant-position:normal;font-variation-settings:normal;inline-size:0;isolation:auto;mix-blend-mode:normal;shape-margin:0;shape-padding:0;text-decoration-color:#000000;text-decoration-line:none;text-decoration-style:solid;text-indent:0;text-orientation:mixed;text-transform:none;white-space:normal"/>
 </g>
 <path d="m51.46 69.19c0 0.6193-0.7531 0.9822-1.682 0.9822-0.929 0-1.682-0.3628-1.682-0.9822 0-0.6193 0.7824-1.517 1.711-1.517 0.929 0 1.653 0.8977 1.653 1.517z" fill="#6d3916" fill-opacity=".5709" stroke-linecap="round" stroke-linejoin="round" stroke-opacity=".9963" stroke-width=".2608"/>
 <g>
  <path d="m28.97 20.06c-3.969 10.58-9.26 25.14 2.646 31.75-9.26-13.23 7.938-27.78 7.938-27.78z" fill="url(#linearGradient3550-1)"/>
  <path d="m56.69 62.9c0-5.527 4.145-12.44 9.673-11.05 1.382 1.382-5.527 12.44-9.673 11.05z" fill="url(#linearGradient3630-4)" opacity=".5455"/>
  <path d="m40.57 60.71c0-5.883-6.909-12.94-15.2-7.059-1.382 1.177 11.05 8.236 15.2 7.059z" fill="url(#linearGradient3655-4)" opacity=".5455"/>
 </g>
 <g transform="matrix(.2646 0 0 .2646 215.5 139.1)" opacity=".9182" shape-rendering="auto">
  <path d="m-595-288.1c10.45-41.78 50.04-27.65 57.45-15.67-5.223 41.78-56.89 30.69-57.45 15.67z" color="#000000" color-rendering="auto" dominant-baseline="auto" fill="#fff" image-rendering="auto" solid-color="#000000" stop-color="#000000" style="font-feature-settings:normal;font-variant-alternates:normal;font-variant-caps:normal;font-variant-east-asian:normal;font-variant-ligatures:normal;font-variant-numeric:normal;font-variant-position:normal;font-variation-settings:normal;inline-size:0;isolation:auto;mix-blend-mode:normal;shape-margin:0;shape-padding:0;text-decoration-color:#000000;text-decoration-line:none;text-decoration-style:solid;text-indent:0;text-orientation:mixed;text-transform:none;white-space:normal"/>
  <path d="m-565.2-317.4c-12.61 0.1995-25.79 7.684-31.11 28.98l-0.0449 0.1797 8e-3 0.1856c0.168 4.497 3.965 8.27 9.199 10.88 5.234 2.614 12.09 4.136 19.14 3.84 7.045-0.2958 14.3-2.428 20.15-7.246 5.85-4.818 10.23-12.32 11.57-23.03l0.0566-0.457-0.2422-0.3926c-2.064-3.34-6.095-6.536-11.18-8.973-5.083-2.436-11.23-4.072-17.54-3.973zm0.041 2.611c5.825-0.0922 11.62 1.439 16.37 3.717 4.57 2.191 8.066 5.098 9.791 7.676-1.35 9.856-5.303 16.51-10.53 20.81-5.323 4.384-12 6.375-18.6 6.652-6.594 0.2769-13.09-1.182-17.86-3.566-4.705-2.35-7.531-5.535-7.721-8.514 5.154-20.28 16.94-26.59 28.54-26.77z" color="#000000" color-rendering="auto" dominant-baseline="auto" image-rendering="auto" solid-color="#000000" stop-color="#000000" style="font-feature-settings:normal;font-variant-alternates:normal;font-variant-caps:normal;font-variant-east-asian:normal;font-variant-ligatures:normal;font-variant-numeric:normal;font-variant-position:normal;font-variation-settings:normal;inline-size:0;isolation:auto;mix-blend-mode:normal;shape-margin:0;shape-padding:0;text-decoration-color:#000000;text-decoration-line:none;text-decoration-style:solid;text-indent:0;text-orientation:mixed;text-transform:none;white-space:normal"/>
 </g>
 <path d="m65.97 55.49c-2.618 0.0414-5.302 1.266-6.953 4.715a5.351 6.218 0 0 0-0.027 0.6191 5.351 6.218 0 0 0 2.205 5.03c1.678 0.6095 3.804 0.8246 5.814 0.3611a5.351 6.218 0 0 0 2.684-5.391 5.351 6.218 0 0 0-2.514-5.271c-0.3989-0.0466-0.8034-0.069-1.21-0.0626z" fill="#1e1006" stroke-linecap="round" stroke-linejoin="round" stroke-opacity=".9963" stroke-width=".4"/>
 <g transform="matrix(.2646 0 0 .2646 215.5 139.1)" shape-rendering="auto">
  <path d="m-661.2-286c-11.49-44.91-54.32-36.56-64.76-16.71 8.356 35.51 50.14 29.25 64.76 16.71z" color="#000000" color-rendering="auto" dominant-baseline="auto" fill="#fff" image-rendering="auto" solid-color="#000000" stop-color="#000000" style="font-feature-settings:normal;font-variant-alternates:normal;font-variant-caps:normal;font-variant-east-asian:normal;font-variant-ligatures:normal;font-variant-numeric:normal;font-variant-position:normal;font-variation-settings:normal;inline-size:0;isolation:auto;mix-blend-mode:normal;shape-margin:0;shape-padding:0;text-decoration-color:#000000;text-decoration-line:none;text-decoration-style:solid;text-indent:0;text-orientation:mixed;text-transform:none;white-space:normal"/>
  <path d="m-699.1-320c-12.06 0.7951-23.19 7.457-28.03 16.65l-0.2285 0.4316 0.1113 0.4766c4.293 18.25 17.46 26.03 31.17 27.37 13.71 1.344 28.01-3.372 35.71-9.969l0.6152-0.5293-0.2012-0.7852c-5.846-22.85-19.97-32.54-33.94-33.62-1.746-0.1356-3.488-0.1409-5.211-0.0273zm0.1777 2.615c1.599-0.1108 3.216-0.1099 4.832 0.0156 12.75 0.9901 25.56 9.423 31.33 30.8-7.101 5.706-20.49 10.14-33.06 8.904-12.79-1.254-24.55-8.003-28.73-24.88 4.434-7.963 14.63-14.08 25.63-14.84z" color="#000000" color-rendering="auto" dominant-baseline="auto" image-rendering="auto" solid-color="#000000" stop-color="#000000" style="font-feature-settings:normal;font-variant-alternates:normal;font-variant-caps:normal;font-variant-east-asian:normal;font-variant-ligatures:normal;font-variant-numeric:normal;font-variant-position:normal;font-variation-settings:normal;inline-size:0;isolation:auto;mix-blend-mode:normal;shape-margin:0;shape-padding:0;text-decoration-color:#000000;text-decoration-line:none;text-decoration-style:solid;text-indent:0;text-orientation:mixed;text-transform:none;white-space:normal"/>
 </g>
 <path d="m32.09 54.84a6.237 6.218 0 0 0-5.316 5.3 6.237 6.218 0 0 0 5.945 5.927c0.2022-2e-3 0.4041-9e-3 0.6056-0.0205a6.237 6.218 0 0 0 5.924-5.906 6.237 6.218 0 0 0-4.701-4.686c-0.8013-0.3352-1.629-0.5308-2.458-0.6137z" fill="#1e1006"/>
 <g transform="matrix(.2646 0 0 .2646 215.5 139.1)" opacity=".5455" shape-rendering="auto">
  <path d="m-661.1-296.5c0-11.17-6.539-23.46-17-30.16-10.46-6.703-24.85-7.82-40.54 3.351" color="#000000" color-rendering="auto" dominant-baseline="auto" fill="url(#linearGradient3655-6-8)" image-rendering="auto" solid-color="#000000" stop-color="#000000" style="font-feature-settings:normal;font-variant-alternates:normal;font-variant-caps:normal;font-variant-east-asian:normal;font-variant-ligatures:normal;font-variant-numeric:normal;font-variant-position:normal;font-variation-settings:normal;inline-size:0;isolation:auto;mix-blend-mode:normal;shape-margin:0;shape-padding:0;text-decoration-color:#000000;text-decoration-line:none;text-decoration-style:solid;text-indent:0;text-orientation:mixed;text-transform:none;white-space:normal"/>
  <path d="m-696.5-332.6c-7.068 0.2873-14.78 2.856-22.76 8.531l1.121 1.576c15.44-10.99 29.3-9.838 39.46-3.326 10.16 6.512 16.56 18.56 16.56 29.35h1.934c0-11.55-6.687-24.08-17.45-30.98-5.38-3.447-11.8-5.44-18.87-5.152z" color="#000000" color-rendering="auto" dominant-baseline="auto" image-rendering="auto" solid-color="#000000" stop-color="#000000" style="font-feature-settings:normal;font-variant-alternates:normal;font-variant-caps:normal;font-variant-east-asian:normal;font-variant-ligatures:normal;font-variant-numeric:normal;font-variant-position:normal;font-variation-settings:normal;inline-size:0;isolation:auto;mix-blend-mode:normal;shape-margin:0;shape-padding:0;text-decoration-color:#000000;text-decoration-line:none;text-decoration-style:solid;text-indent:0;text-orientation:mixed;text-transform:none;white-space:normal"/>
 </g>
 <path d="m65.36 51.41c-2.443-0.1729-4.582 1.194-6.13 3.207-1.77 2.301-2.821 5.454-2.821 8.287h0.5524c0-2.695 1.022-5.76 2.706-7.95 1.685-2.19 3.981-3.498 6.623-2.837l0.1338-0.5359c-0.3606-0.0901-0.7155-0.1464-1.065-0.171z" color="#000000" color-rendering="auto" dominant-baseline="auto" image-rendering="auto" opacity=".5455" shape-rendering="auto" solid-color="#000000" stop-color="#000000" style="font-feature-settings:normal;font-variant-alternates:normal;font-variant-caps:normal;font-variant-east-asian:normal;font-variant-ligatures:normal;font-variant-numeric:normal;font-variant-position:normal;font-variation-settings:normal;inline-size:0;isolation:auto;mix-blend-mode:normal;shape-margin:0;shape-padding:0;text-decoration-color:#000000;text-decoration-line:none;text-decoration-style:solid;text-indent:0;text-orientation:mixed;text-transform:none;white-space:normal"/>
</svg>
