<svg width="24" height="24" version="1.1" viewBox="0 0 24 24" xmlns="http://www.w3.org/2000/svg">
 <path d="M0 0h24v24H0z" fill="none"/>
 <path d="m13.49 9c0 1.38 1.12 2.5 2.5 2.5s2.5-1.12 2.5-2.5-1.12-2.5-2.5-2.5-2.5 1.12-2.5 2.5z"/>
 <path d="m18.99 20c-0.29 0-0.56-0.06-0.76-0.15-0.71-0.37-1.21-0.88-1.71-2.38-0.51-1.56-1.47-2.29-2.39-3-0.79-0.61-1.61-1.24-2.32-2.53-0.53-0.96-0.82-2.01-0.82-2.94 0-2.8 2.2-5 5-5s5 2.2 5 5h2c0-3.93-3.07-7-7-7s-7 3.07-7 7c0 1.26 0.38 2.65 1.07 3.9 0.91 1.65 1.98 2.48 2.85 3.15 0.81 0.62 1.39 1.07 1.71 2.05 0.6 1.82 1.37 2.84 2.73 3.55 0.51 0.23 1.07 0.35 1.64 0.35 2.21 0 4-1.79 4-4h-2c0 1.1-0.9 2-2 2z"/>
 <path d="m5.851 6.027-1.63 1.63c2.77 3.02 2.77 7.56 0 10.74l1.63 1.63c3.9-3.89 3.91-9.95 0-14z"/>
 <path d="m2.541 9.387-1.68 1.69c0.84 1.18 0.84 2.71 0 3.89l1.68 1.69c2.02-2.02 2.02-5.07 0-7.27z"/>
</svg>
