<svg id="SVGRoot" width="24px" height="24px" version="1.1" viewBox="0 0 24 24" xmlns="http://www.w3.org/2000/svg">
 <defs>
  <filter id="filter1918" x="-.07132" y="-.1199" width="1.143" height="1.24" color-interpolation-filters="sRGB">
   <feGaussianBlur stdDeviation="75.466903"/>
  </filter>
 </defs>
 <g fill="#fd5" stroke="#000" stroke-width="1px">
  <path transform="matrix(.008276 0 0 .008276 11 14.14)" d="m214-637.9c199.7-175.3 798.6-319.4 798.6-319.4s73.66 18.64 111.3 19.3c47.23 0.8279 140.4-19.3 140.4-19.3s134 2 116.1 38.69c-90.3 185.4-150.8 245.2-290.4 290.4-139.6 45.25-900.3 101.6-900.3 101.6s-4.3-86.29 24.25-111.4z" filter="url(#filter1918)"/>
  <path transform="matrix(.008276 0 0 .008276 11 14.14)" d="m189.8-526.5c202.5 11.06 341.8 137 503.4 363s242 653.4 154.8 706.7c-87.95 53.79-241.9-121-241.9-121s-107.4-48.2-150.2-87.18c-106.9-97.39-251.6-353.4-251.6-353.4l-92.03-377.5s26.88-133.4 77.42-130.7z" filter="url(#filter1918)"/>
  <path transform="matrix(-.008276 0 0 .008276 .5501 16.64)" d="m-1274-939.4c199.7-175.3 798.6-319.4 798.6-319.4s73.66 18.64 111.3 19.3c47.23 0.828 140.4-19.3 140.4-19.3s134 2 116.1 38.69c-90.3 185.4-150.8 245.2-290.4 290.4s-900.3 101.6-900.3 101.6-4.3-86.29 24.25-111.4z" filter="url(#filter1918)"/>
  <path transform="matrix(-.008276 0 0 .008276 .5501 16.64)" d="m-1298-828c202.5 11.06 341.8 137 503.4 363 161.6 226 242 653.4 154.8 706.7-87.95 53.79-241.9-121-241.9-121s-107.4-48.2-150.2-87.18c-106.9-97.39-251.6-353.4-251.6-353.4l-92.03-377.5s26.88-133.4 77.42-130.7z" filter="url(#filter1918)"/>
 </g>
 <g fill="#fff" stroke-width=".008276">
  <path d="m12.77 8.861c1.653-1.451 6.609-2.643 6.609-2.643s0.6096 0.1543 0.9212 0.1597c0.3908 0.00685 1.162-0.1597 1.162-0.1597s1.109 0.01655 0.9611 0.3201c-0.7473 1.535-1.248 2.029-2.403 2.403-1.155 0.3745-7.451 0.841-7.451 0.841s-0.03558-0.7141 0.2007-0.9215z" style="mix-blend-mode:normal"/>
  <path d="m12.57 9.783c1.676 0.09152 2.828 1.134 4.166 3.004 1.338 1.87 2.003 5.407 1.281 5.849-0.7279 0.4452-2.002-1.001-2.002-1.001s-0.8887-0.3988-1.243-0.7215c-0.8843-0.806-2.082-2.924-2.082-2.924l-0.7616-3.124s0.2224-1.104 0.6407-1.081z" style="mix-blend-mode:normal"/>
  <path d="m11.09 8.861c-1.653-1.451-6.609-2.643-6.609-2.643s-0.6096 0.1543-0.9212 0.1597c-0.3908 0.00685-1.162-0.1597-1.162-0.1597s-1.109 0.01655-0.9611 0.3201c0.7473 1.535 1.248 2.029 2.403 2.403 1.155 0.3744 7.451 0.841 7.451 0.841s0.03558-0.7141-0.2007-0.9215z" style="mix-blend-mode:normal"/>
  <path d="m11.29 9.783c-1.676 0.09152-2.828 1.134-4.166 3.004-1.338 1.87-2.003 5.407-1.281 5.849 0.7279 0.4452 2.002-1.001 2.002-1.001s0.8887-0.3988 1.243-0.7215c0.8843-0.806 2.082-2.924 2.082-2.924l0.7616-3.124s-0.2224-1.104-0.6407-1.081z" style="mix-blend-mode:normal"/>
 </g>
</svg>
