<svg width="100.4mm" height="100.4mm" version="1.1" viewBox="0 0 100.4 100.4" xmlns="http://www.w3.org/2000/svg" xmlns:xlink="http://www.w3.org/1999/xlink">
 <defs>
  <linearGradient id="linearGradient894" x1="-52.85" x2="-34.49" y1="92.23" y2="98.98" gradientTransform="translate(137.3 .1227)" gradientUnits="userSpaceOnUse">
   <stop stop-color="#e74f4f" offset="0"/>
   <stop stop-color="#ff9494" offset="1"/>
  </linearGradient>
  <linearGradient id="linearGradient908" x1="-51.21" x2="-48.8" y1="100.6" y2="90.17" gradientTransform="translate(137.3 .1227)" gradientUnits="userSpaceOnUse" xlink:href="#linearGradient1030"/>
  <linearGradient id="linearGradient1030">
   <stop stop-color="#ff6e6e" offset="0"/>
   <stop stop-color="#ff9494" offset="1"/>
  </linearGradient>
  <linearGradient id="linearGradient1085" x1="-101.4" x2="-95.55" y1="83.6" y2="73.73" gradientTransform="translate(137.3 .1227)" gradientUnits="userSpaceOnUse" xlink:href="#linearGradient1030"/>
  <linearGradient id="linearGradient1032" x1="-64.69" x2="-68.88" y1="88.84" y2="73.89" gradientTransform="translate(137.3 .1227)" gradientUnits="userSpaceOnUse" xlink:href="#linearGradient1030"/>
  <linearGradient id="linearGradient1048" x1="-88.34" x2="-85.33" y1="83.18" y2="74.28" gradientTransform="translate(137.3 .1227)" gradientUnits="userSpaceOnUse" xlink:href="#linearGradient1030"/>
  <linearGradient id="linearGradient1040" x1="-76.75" x2="-78.66" y1="86.37" y2="76.9" gradientTransform="translate(137.3 .1227)" gradientUnits="userSpaceOnUse" xlink:href="#linearGradient1030"/>
 </defs>
 <g transform="translate(50.09 -39.87)">
  <g transform="translate(-64.9 .1071)">
   <g>
    <path d="m43.03 105.7c0.0971 4.189-9.897 6.653-7.902 0.8318-2.828 4.089-9.922 3.039-7.486-1.664-2.329 1.414-11.03-2.437-10.31-4.908 1.508-1.294 16.22-4.492 17.55-4.825 1.331-0.3327 6.431-6.351 9.732-3.826 0.3898 1.318-1.089 12.5-1.58 14.39z" fill="#ffdcaf"/>
    <path d="m42.5 96.58c-9.014-0.3676-24.59 4.176-25.17 3.353-2.134-2.546 14.11-2.804 21.5-11.41 4.768-3.028 7.424 7.143 3.676 8.058z" fill="#faa"/>
    <path d="m88.75 68.79c6.645 19.32 23.24 25.75 14.18 33.81-9.055 8.067-16.76-4.201-16.76-4.201s3.078-0.8318 3.743-3.119c-1.584-4.577-10.62 0.3813-22.17-16.3" fill="url(#linearGradient894)"/>
    <path d="m80.1 111.6c0.5615 1.352 3.785 4.367 5.532-0.2912 0.7486 5.199 3.51 7.493 6.904 0.3327 1.856 6.19 4.783 3.286 4.991-1.081 2.204 4.575 8.526 6.53 10.77 1.497 1.539 0.6655 4.201-0.8734 4.492-1.04-14.1-4.367-17.5-15.35-24.37-13.56-6.87 1.795-8.88 12.79-8.318 14.14z" fill="#ffdcaf"/>
    <path d="m88.46 90.29c4.194-1.183 8.443 8.693 10.86 11.02 2.412 2.329 14.81 7.944 13.48 9.732-6.711 3.144-23.29-4.543-26.74-10.36-0.4991-1.206-1.781-9.215 2.412-10.4z" fill="#faa"/>
    <path d="m87.55 96.7c-0.2353 20.03-12.89 23.81-26.59 23.06-5.19-0.7058-24.05-4.464-18.47-23.17-4.368-15.96 10.36-22.94 22.7-22.94 12.34 0 22.5 10.32 22.35 23.06z" fill="#ffe6d5" stroke-opacity="0"/>
   </g>
   <ellipse transform="matrix(.994 -.109 .1026 .9947 0 0)" cx="35.6" cy="107.6" rx="3.452" ry="1.438" fill="#ff80b2" fill-opacity=".6754"/>
   <g>
    <path d="m68.05 64.03c-3.786-7.11-9.702-8.029-18.62-0.6691-8.922 7.36-12.38 25.54-12.71 29.44-0.6356 6.811 3.867 9.924 3.867 9.924s-0.6061-2.342-5e-5 -4.008c1.243 4.509 5.939 7.073 8.931 2.921-8.931 1.087-7.97-10.54-3.174-15.45 4.795-4.907 9.107-9.004 15.69-7.888 6.58 1.115 10.92 3.072 12.73 4.609 1.809 1.538 8.318 6.982 9.738 12.13 1.512 5.48-1.568 14.73-6.456 10.15 2.841 5.464 11.33 3.293 12.84-5.545 1.503-8.838 11.49-2.65-1.307-29.34-3.813-7.392-12.39-10.69-16.31-4.681-3.212-1.678-7.252-13.21 0.2468-14.61 7.499-1.397 10.49 4.867 13.49 10.25-1.811-8.689-6.274-13.18-11.94-13.48-5.666-0.2983-12.26 5.976-6.998 16.24z" fill="url(#linearGradient908)"/>
    <path d="m60.34 101.4c1.503 0.1405 1.135 0.5348 0.7091 1.607-0.4262 1.073-1.059 1.272-1.593-7e-3 -0.5342-1.279-0.3143-1.768 0.884-1.6z" fill="#ff6e6e"/>
    <path d="m62.08 64.83c-2.523-3.233-9.252-5.276-16.82-1.018-7.57 4.258-9.753 8.016-10.02 15.44-0.2977 8.147-2.478 11.37-5.146 11.19-1.948-0.1286-2.788-2.204-2.994-5.309-3.406 6.047 2.367 10.98 6.984 9.037 4.179-1.814 4.74-3.559 7.185-8.29 3.36-5.109 3.679-12.1 11.67-15.14" fill="url(#linearGradient1085)" opacity=".96"/>
   </g>
   <path d="m67.17 98c2.059-8.235 11.35-5.617 9.764 1.823-3.088 3.353-9.323 1.618-9.764-1.823z" fill="#fff" fill-opacity=".9963" stroke="#000" stroke-width=".2646px"/>
   <path d="m64.95 70.6c-5.425 10.41 2.469 27.52 19.46 21.75-8.672-4.367-12.75-7.288-10.86-19.63" fill="url(#linearGradient1032)"/>
   <ellipse transform="matrix(.9848 .1737 -.1799 .9837 0 0)" cx="91.76" cy="91.04" rx="3.452" ry="1.438" fill="#ff80b2" fill-opacity=".6754"/>
   <path d="m51.91 109.4c1.882 3.559 4.911 2.323 7.176 0.7058 3.658 3.907 9.411 3.559 10.53 1.118" fill="none" stroke="#b8a034"/>
   <path d="m67.17 98c1.776-7.635 9.22-6.691 10.38-2.265" fill="none" stroke="#000" stroke-width=".2646px"/>
   <path d="m49.78 71.66c-7.172 3.379-6.348 21.7 3.452 21.96-5.553-6.488 0.9759-15.02 5.365-16.59" fill="url(#linearGradient1048)"/>
   <path d="m75.63 97.88c-0.3199 2.136-0.2552 4.004-3.912 3.676-2.787-0.2502-3.462-1.545-3.108-3.676 0.4705-2.837 1.644-4.235 3.491-4.235 1.847 0 3.853 2.075 3.529 4.235z" fill="#4d7e07" fill-opacity=".9963" opacity=".96" stroke-opacity="0"/>
   <g>
    <path d="m59.68 66.53c-9.543 7.413-2.646 26.11 7.154 26.37-5.553-6.488-3.89-20.22 0.208-25.62" fill="url(#linearGradient1040)"/>
    <path d="m55.41 96.44c1.79-4.791-6.818-10.97-9.558-1.676 0.05882 5.058 8.043 4.926 9.558 1.676z" fill="#fff" stroke="#000" stroke-width=".2646px"/>
    <path d="m55.12 94.97c0 2.422-2.056 3.817-4.194 3.797-3.138-0.0294-3.135-1.375-3.135-3.797 0-2.422 1.321-3.969 3.459-3.969 2.138 0 3.87 1.547 3.87 3.969z" fill="#548311" opacity=".96" stroke-opacity="0"/>
   </g>
   <path d="m55.41 96.44c1.154-3.224-2.767-9.519-8.654-6.148" fill="none" stroke="#000" stroke-width=".2535px"/>
  </g>
 </g>
</svg>
