<svg id="SVGRoot" width="24px" height="24px" version="1.1" viewBox="0 0 24 24" xmlns="http://www.w3.org/2000/svg">
 <circle cx="12" cy="12" r="12" fill="#808080" fill-opacity=".5727"/>
 <path d="m12.77 3.281c-2.927 0.6279-6.762 8.978-8.068 11.99 1.084-1.138 2.364-2.347 3.74-3.525 1.137-0.9741 2.354-1.885 3.564-2.757l0.3604-2.313s0.5647-1.459 0.6057-2.041c0.04115-0.5829-0.2013-1.361-0.2013-1.361z" fill="#a2eaa2"/>
 <path d="m4.134 16.52c4.334-4.55 11.82-10.26 15.95-10.46 0.3601 0.607 0.1513 2.092 0.1513 2.092s-2.063 3.335-2.799 3.756c-0.5334 1.026-5.95 3.529-5.95 3.529s2.066-0.497 4.563-0.4034c-0.428 0.5475-4.311 1.803-4.311 1.803s0.3781-0.1261 1.765 0.08824c0.0028 0.8128-3.252 0.7058-3.252 0.7058-2.218-0.03362-2.455-0.2824-6.277-0.05042z" fill="#a2eaa2"/>
</svg>
