<?xml version="1.0" encoding="UTF-8"?>
<!-- Created with Inkscape (http://www.inkscape.org/) -->
<svg id="SVGRoot" width="86.526" height="29.634" version="1.1" viewBox="0 0 86.526 29.634" >
 <g transform="translate(4.5205 3.1443)">
  <path d="m12.88 1.5884c-4.1144 0.88259-9.5041 12.618-11.34 16.864 1.5226-1.5988 3.3232-3.2984 5.2566-4.9549 1.598-1.3691 3.3079-2.6489 5.0088-3.8745l0.50654-3.252s0.79357-2.0502 0.85141-2.8695c0.05784-0.81924-0.28291-1.913-0.28291-1.913z" fill="#70ad47"/>
  <path d="m0.75288 20.192c6.0904-6.3956 16.608-14.424 22.429-14.705 0.50619 0.85307 0.21261 2.941 0.21261 2.941s-2.9 4.6874-3.9331 5.2796c-0.74965 1.4427-8.3623 4.9607-8.3623 4.9607s2.9047-0.69859 6.4134-0.56693c-0.60146 0.76946-6.059 2.5335-6.059 2.5335s0.53149-0.17717 2.4803 0.12402c4e-3 1.1423-4.571 0.99214-4.571 0.99214-3.1181-0.04725-3.4507-0.39688-8.8229-0.07087z" fill="#229622"/>
 </g>
 <g fill="#229622" stroke-width=".24789" aria-label="Fairy">
  <path d="m33.323 19.863v-7.0493h4.3671v0.76497h-3.4327v2.4063h2.9534v0.76497h-2.9534v3.1131z"/>
  <path d="m41.738 19.863q-0.08715-0.18882-0.12588-0.55194-0.25176 0.26629-0.6294 0.45995-0.37764 0.18882-0.8618 0.18882-0.8037 0-1.2879-0.45027-0.48416-0.45026-0.48416-1.1039 0-0.84243 0.63909-1.2782 0.63909-0.44058 1.7188-0.44058h0.88601v-0.41638q0-0.46479-0.28081-0.74076-0.27597-0.28081-0.82307-0.28081-0.50836 0-0.82307 0.25176-0.30986 0.24692-0.30986 0.57615h-0.89569q0-0.56162 0.56646-1.0555 0.56646-0.49384 1.5154-0.49384 0.85212 0 1.3992 0.43574 0.5471 0.43574 0.5471 1.3169v2.353q0 0.72624 0.18398 1.1523v0.07747zm-1.4864-0.6875q0.48416 0 0.83759-0.24208 0.35828-0.24208 0.50352-0.53741v-1.0797h-0.83275q-1.5106 0.02905-1.5106 0.96831 0 0.3728 0.25176 0.63424 0.25176 0.2566 0.75044 0.2566z"/>
  <path d="m43.902 13.235q0-0.21787 0.13072-0.36796 0.13556-0.15009 0.39701-0.15009 0.2566 0 0.39217 0.15009 0.14041 0.15009 0.14041 0.36796 0 0.20819-0.14041 0.35828-0.13556 0.14525-0.39217 0.14525-0.26144 0-0.39701-0.14525-0.13072-0.15009-0.13072-0.35828zm0.96831 1.3895v5.2386h-0.90053v-5.2386z"/>
  <path d="m48.4 15.389q-0.87632 0-1.1959 0.75528v3.7183h-0.89569v-5.2386h0.87148l0.01937 0.60035q0.4309-0.69718 1.2443-0.69718 0.25176 0 0.39701 0.06778l-0.0048 0.83275q-0.1985-0.03873-0.43574-0.03873z"/>
  <path d="m51.542 20.671q-0.46479 1.2298-1.4041 1.3024l-0.15009 0.0048q-0.28565 0-0.50352-0.07747l-0.0048-0.72624 0.24208 0.01937q0.45511 0 0.71171-0.18882 0.2566-0.18398 0.42122-0.66814l0.19366-0.53257-1.8688-5.1805h0.978l1.3121 3.9217 1.2152-3.9217h0.95863z"/>
 </g>
 <g fill="#70ad47" stroke-width=".24789" aria-label="Biome">
  <path d="m59.248 17.543q0 0.98768-0.63909 1.5106-0.63424 0.52289-1.6897 0.52289h-2.4692v-7.0493h2.3094q1.0845 0 1.6897 0.45026 0.61004 0.44542 0.61004 1.4283 0 0.489-0.28081 0.87148-0.27597 0.37764-0.76012 0.58583 0.59551 0.16461 0.91021 0.62456 0.31954 0.45995 0.31954 1.0555zm-3.8636-4.2509v2.2368h1.4041q0.60035 0 0.96831-0.30018 0.36796-0.30018 0.36796-0.83275 0-1.0797-1.3072-1.1039zm2.934 4.2606q0-0.59067-0.32438-0.92958-0.31954-0.34375-1.0313-0.34375h-1.5784v2.537h1.5348q0.66329 0 1.0313-0.33891 0.36796-0.34375 0.36796-0.92474z"/>
  <path d="m60.497 12.948q0-0.21787 0.13072-0.36796 0.13556-0.15009 0.39701-0.15009 0.2566 0 0.39217 0.15009 0.1404 0.15009 0.1404 0.36796 0 0.20819-0.1404 0.35828-0.13556 0.14525-0.39217 0.14525-0.26144 0-0.39701-0.14525-0.13072-0.15009-0.13072-0.35828zm0.96831 1.3895v5.2386h-0.90053v-5.2386z"/>
  <path d="m62.666 16.903q0-1.1378 0.63909-1.8979 0.63909-0.76497 1.7381-0.76497t1.7381 0.75044q0.63909 0.7456 0.65361 1.864v0.15977q0 1.1378-0.64393 1.8979-0.63909 0.76012-1.7381 0.76012-1.1039 0-1.7478-0.76012-0.63909-0.76013-0.63909-1.8979zm0.89569 0.11136q0 0.77949 0.36796 1.3508 0.3728 0.5713 1.1232 0.5713 0.73108 0 1.1039-0.56162 0.3728-0.56646 0.37764-1.346v-0.12588q0-0.76981-0.3728-1.346-0.3728-0.58099-1.1184-0.58099-0.74076 0-1.1136 0.58099-0.36796 0.57615-0.36796 1.346z"/>
  <path d="m70.655 14.996q-0.88116 0-1.2055 0.74076v3.8394h-0.90053v-5.2386h0.85212l0.02421 0.5713q0.56646-0.66814 1.5493-0.66814 0.50352 0 0.89569 0.20335 0.39701 0.1985 0.6052 0.63909 0.26144-0.37764 0.67782-0.61004 0.42122-0.2324 0.98768-0.2324 0.84243 0 1.2975 0.45027 0.45995 0.45026 0.45995 1.4428v3.4424h-0.90053v-3.452q0-0.65845-0.30502-0.89085-0.30018-0.23724-0.81338-0.23724-0.54226 0-0.85212 0.32438-0.30986 0.31954-0.35828 0.77949v3.4762h-0.89569v-3.4472q0-0.61488-0.30502-0.87148-0.30502-0.26144-0.81338-0.26144z"/>
  <path d="m81.398 18.661q-0.2566 0.38733-0.72623 0.70203-0.46963 0.30986-1.2443 0.30986-1.0942 0-1.7526-0.71171-0.65361-0.71171-0.65361-1.8204v-0.20335q0-0.85696 0.32438-1.4573 0.32923-0.6052 0.85212-0.9199 0.52289-0.31954 1.1136-0.31954 1.1232 0 1.6364 0.73592 0.51805 0.73108 0.51805 1.8301v0.40185h-3.544q0.01937 0.72139 0.42606 1.2298 0.41153 0.50352 1.1281 0.50352 0.47447 0 0.8037-0.19366 0.32923-0.19366 0.57615-0.51805zm-2.0867-3.6844q-0.53257 0-0.90053 0.38732t-0.45995 1.1136h2.6193v-0.06778q-0.03389-0.52289-0.30502-0.978-0.26629-0.45511-0.95379-0.45511z"/>
 </g>
</svg>
