<?xml version="1.0" encoding="UTF-8"?>
<svg id="SVGRoot" width="24px" height="24px" version="1.1" viewBox="0 0 24 24" xmlns="http://www.w3.org/2000/svg" xmlns:cc="http://creativecommons.org/ns#" xmlns:dc="http://purl.org/dc/elements/1.1/" xmlns:rdf="http://www.w3.org/1999/02/22-rdf-syntax-ns#">
 <metadata>
  <rdf:RDF>
   <cc:Work rdf:about="">
    <dc:format>image/svg+xml</dc:format>
    <dc:type rdf:resource="http://purl.org/dc/dcmitype/StillImage"/>
    <dc:title/>
   </cc:Work>
  </rdf:RDF>
 </metadata>
 <circle cx="12" cy="12" r="12" fill="#808080" fill-opacity=".5727"/>
 <path d="m12.766 3.2814c-2.927 0.62791-6.7615 8.9779-8.0682 11.993 1.0837-1.1379 2.3643-2.3466 3.7397-3.5251 1.1368-0.97406 2.3539-1.885 3.5636-2.7571l0.36043-2.3132s0.56466-1.4588 0.60571-2.0413c0.041149-0.58289-0.20131-1.3609-0.20131-1.3609z" fill="#229622"/>
 <path d="m4.1345 16.52c4.3337-4.5504 11.816-10.263 15.953-10.462 0.36012 0.60696 0.1513 2.0923 0.1513 2.0923s-2.0632 3.3354-2.7988 3.7564c-0.5334 1.0265-5.9498 3.5293-5.9498 3.5293s2.0663-0.49703 4.5629-0.40336c-0.42795 0.54747-4.3108 1.8027-4.3108 1.8027s0.37814-0.12608 1.7651 0.08824c0.0028 0.81276-3.2521 0.70585-3.2521 0.70585-2.2184-0.03362-2.455-0.28238-6.277-0.05042z" fill="#229622"/>
 <path d="m19.5 14a4.5 4.5 0 0 0-4.5 4.5 4.5 4.5 0 0 0 4.5 4.5 4.5 4.5 0 0 0 4.5-4.5 4.5 4.5 0 0 0-4.5-4.5zm0 1.164a0.5234 0.5234 0 0 1 0.5238 0.5238v4.449l1.911-1.433a0.5234 0.5234 0 0 1 0.733 0.1037 0.5234 0.5234 0 0 1-0.1055 0.733l-2.74 2.055-0.3217 0.2426-0.2865-0.2162-2.776-2.081a0.5234 0.5234 0 0 1-0.1055-0.733 0.5234 0.5234 0 0 1 0.4025-0.2092 0.5234 0.5234 0 0 1 0.3305 0.1055l1.911 1.433v-4.449a0.5234 0.5234 0 0 1 0.5238-0.5238z"/>
</svg>
